PathFileType	4	(X/Y/Z)	S01_0009_Gait_markers.trc
DataRate	CameraRate	NumFrames	NumMarkers	Units	OrigDataRate	OrigDataStartFrame	OrigNumFrames
250.000000	250.000000	4	54	mm	250.000000	257	343
Frame#	Time	HEAD_ANT			R_HEAD			L_HEAD			C7			R_BACK			L_BACK			STERNUM			R_ACROMION			R_HUM_PROX			R_HUM_ANT			R_HUM_POST			R_ELBOW_LAT			R_ELBOW_MED			R_FOREARM			R_WIRST_LAT			R_WRITS_MED			R_HAND			L_ACROMION			L_HUM_PROX			L_HUM_ANT			L_HUM_POST			L_ELBOW_LAT			L_ELBOW_MED			L_FOREARM			L_WRIST_LAT			L_WIRST_MED			L_HAND			R_ILIAC			SACRUM			L_ILIAC			R_GTROCH			R_THIGH__1			R_THIGH_2			R_THIGH_3			R_THIGH_4			R_SHANK_1			R_SHANK_2			R_SHANK_3			R_SHANK_4			R_HEEL			R_FOOT_LAT			R_FOOT_MED			L_GTROCH			L_THIGH_1			L_THIGH_2			L_THIGH_3			L_THIGH_4			L_SHANK_1			L_SHANK_2			L_SHANK_3			L_SHANK_4			L_HEEL			L_FOOT_LAT			L_FOOT_MED			
		X1	Y1	Z1	X2	Y2	Z2	X3	Y3	Z3	X4	Y4	Z4	X5	Y5	Z5	X6	Y6	Z6	X7	Y7	Z7	X8	Y8	Z8	X9	Y9	Z9	X10	Y10	Z10	X11	Y11	Z11	X12	Y12	Z12	X13	Y13	Z13	X14	Y14	Z14	X15	Y15	Z15	X16	Y16	Z16	X17	Y17	Z17	X18	Y18	Z18	X19	Y19	Z19	X20	Y20	Z20	X21	Y21	Z21	X22	Y22	Z22	X23	Y23	Z23	X24	Y24	Z24	X25	Y25	Z25	X26	Y26	Z26	X27	Y27	Z27	X28	Y28	Z28	X29	Y29	Z29	X30	Y30	Z30	X31	Y31	Z31	X32	Y32	Z32	X33	Y33	Z33	X34	Y34	Z34	X35	Y35	Z35	X36	Y36	Z36	X37	Y37	Z37	X38	Y38	Z38	X39	Y39	Z39	X40	Y40	Z40	X41	Y41	Z41	X42	Y42	Z42	X43	Y43	Z43	X44	Y44	Z44	X45	Y45	Z45	X46	Y46	Z46	X47	Y47	Z47	X48	Y48	Z48	X49	Y49	Z49	X50	Y50	Z50	X51	Y51	Z51	X52	Y52	Z52	X53	Y53	Z53	X54	Y54	Z54	

258	1.028	1589.164794921875	1753.432983398438	-317.3440551757809	1529.044799804688	1702.216064453125	-241.4683685302731	1533.17822265625	1702.834350585938	-388.5168457031246	1396.41259765625	1530.446655273438	-316.4523010253903	1325.46337890625	1332.45703125	-250.4025573730466	1329.975463867188	1335.198486328125	-392.9794311523435	1577.632080078125	1373.256713867188	-310.6835327148435	1468.8349609375	1486.302001953125	-141.596038818359	1418.35107421875	1330.635986328125	-47.65446853637665	1476.010131835938	1243.365966796875	-35.43998336791964	1354.556884765625	1250.32470703125	-37.11132812499972	1399.127807617188	1142.756591796875	-20.30080032348608	1377.462768554688	1137.072631835938	-101.4045333862302	1488.474243164062	955.48095703125	-7.990968227386262	1525.751220703125	886.9610595703125	-43.97113037109355	1455.1630859375	867.123046875	-7.510463237762258	1520.936401367188	798.867431640625	13.8230981826784	1481.22802734375	1485.81103515625	-479.8376464843747	1470.649291992188	1320.51220703125	-579.7968139648434	1535.97021484375	1242.101684570313	-575.6876220703123	1416.656860351562	1241.084106445313	-609.855285644531	1480.083618164062	1139.394653320313	-614.5189208984373	1425.501342773438	1128.8701171875	-560.1534423828123	1611.978637695312	985.2252807617189	-577.029602050781	1648.614990234375	935.3819580078126	-519.5656127929685	1614.2890625	899.4391479492189	-580.5883178710935	1701.957397460938	867.4896850585939	-561.411682128906	1474.737182617188	1086.033569335938	-145.0549163818357	1347.267456054688	1053.301147460938	-312.7384643554685	1470.643920898438	1076.205932617188	-487.3511962890623	1441.216186523438	935.5418701171875	-122.8033752441404	1563.798706054688	668.1160888671875	-136.0128784179686	1613.573364257812	699.5722045898438	-131.3288269042967	1646.99609375	601.181884765625	-161.0336914062499	1583.20263671875	589.6143798828125	-154.0161132812499	1563.641845703125	375.2377624511719	-147.209487915039	1618.243774414062	350.2451782226563	-156.1145019531249	1609.379272460938	265.7378845214844	-171.8698120117187	1545.940063476562	276.7745666503907	-166.8068847656249	1504.230102539062	63.89209747314459	-252.8789520263672	1650.73876953125	32.51739883422855	-146.9803619384766	1715.379272460938	49.00860977172857	-225.5425262451172	1430.982055664062	963.1435546875001	-488.6646423339841	1477.762939453125	669.1688842773439	-464.2311706542967	1428.59033203125	697.0315551757814	-482.1165466308592	1398.115356445312	598.4833984375001	-446.7420349121093	1461.527709960938	592.8781738281251	-438.5351562499999	1375.21337890625	331.4546203613282	-424.6707153320312	1315.912109375	318.8584899902345	-427.1348571777343	1300.041625976562	235.1240692138673	-407.2663879394531	1363.41943359375	232.0052795410157	-398.7431640624999	1231.43115234375	58.64138412475593	-330.5879211425781	1402.38037109375	20.81892013549814	-404.1029357910156	1442.181640625	26.51622772216804	-299.1037902832031	
259	1.032	1594.845092773438	1752.587768554688	-317.1383056640621	1534.623046875	1701.463012695312	-241.2294006347653	1538.8818359375	1702.001342773438	-388.355560302734	1402.104614257812	1529.62060546875	-316.3298034667965	1330.925659179688	1331.705200195312	-250.6343231201169	1335.386474609375	1334.420166015625	-392.6291809082028	1583.149047851562	1372.3154296875	-310.4330749511716	1474.129272460938	1485.501831054688	-141.4710693359372	1423.389038085938	1329.89453125	-47.73567962646455	1480.746948242188	1242.548828125	-35.19372940063449	1359.326904296875	1249.806518554688	-37.26728439331027	1403.401489257812	1142.23095703125	-20.0672054290769	1382.0595703125	1136.427612304688	-101.2298812866208	1492.569213867188	954.7469482421875	-7.258655548095491	1529.842041015625	886.21484375	-43.13045120239238	1459.169677734375	866.4862060546875	-7.079157829284475	1524.767456054688	798.1008911132812	14.76315116882342	1486.906372070312	1485.031982421875	-479.7793273925778	1476.640502929688	1319.935913085938	-579.7708740234372	1542.111450195312	1241.618774414063	-575.6032714843748	1423.033081054688	1240.340454101563	-610.2203979492185	1487.146118164062	1139.027954101563	-615.1041259765623	1432.030517578125	1127.949340820313	-560.4674072265623	1619.16796875	985.4323120117189	-576.7304077148435	1656.019653320312	935.8482055664064	-518.8643798828123	1622.166625976562	899.5091552734376	-579.9035034179685	1709.962158203125	868.2785644531251	-560.5744628906248	1480.086181640625	1085.058227539062	-144.9628753662107	1352.754638671875	1052.58740234375	-312.3789367675779	1475.909423828125	1075.544067382812	-487.3559265136716	1446.823852539062	934.63330078125	-122.8645706176756	1569.363525390625	667.342529296875	-136.4291992187499	1619.112182617188	698.9099731445312	-131.6082611083983	1652.755004882812	600.6942749023438	-161.4768829345702	1588.9892578125	588.9421997070312	-154.4843444824217	1573.120483398438	373.4710693359376	-147.7245025634765	1628.359130859375	349.9277954101563	-156.2288208007812	1621.71533203125	265.1889038085938	-171.8924102783203	1557.901611328125	274.4647521972657	-167.2814178466796	1521.777709960938	60.77099990844732	-252.6567993164062	1669.179931640625	32.44733428955082	-147.0011444091797	1733.24609375	50.02719879150396	-225.4144744873047	1435.695190429688	962.5507202148439	-488.3311462402341	1479.87109375	668.9768066406251	-464.209991455078	1430.490600585938	695.7838745117189	-481.2343749999998	1400.191772460938	598.6397705078126	-447.0828247070311	1463.7939453125	592.4974365234376	-438.6395263671874	1376.357543945312	332.380096435547	-425.3219299316406	1316.623657226562	319.2877197265626	-427.1091003417968	1300.593017578125	235.4956054687501	-407.2275695800781	1364.095703125	232.2918090820313	-398.6976013183593	1231.53173828125	59.27161026000984	-330.4347229003906	1402.244018554688	20.82566261291513	-404.0350341796875	1442.211303710938	26.52873802185065	-299.2110290527344	
260	1.036	1600.521240234375	1751.799194335938	-316.9315795898434	1540.157836914062	1700.415161132812	-241.0834350585934	1544.50146484375	1701.219360351562	-388.2289123535152	1407.638549804688	1528.7978515625	-316.336029052734	1336.367797851562	1330.906005859375	-250.6952056884763	1340.833984375	1333.69091796875	-392.6573181152341	1588.765747070312	1371.335571289062	-310.4654541015622	1479.520385742188	1484.669189453125	-141.3920745849606	1428.142944335938	1329.17236328125	-47.6596794128415	1485.539428710938	1241.795654296875	-34.95138168334933	1364.269897460938	1249.128051757812	-37.19519805908175	1408.061401367188	1141.577758789062	-19.98188018798803	1387.00244140625	1135.507446289062	-101.1592483520505	1496.704956054688	953.9559326171875	-6.641582012176302	1534.034423828125	885.2894287109375	-42.16037750244121	1463.12158203125	865.6900024414062	-6.527286052703666	1528.5126953125	797.3338012695312	15.73355293273944	1492.627685546875	1484.2734375	-479.5679016113278	1482.810791015625	1319.132202148438	-579.7287597656247	1548.334106445312	1241.08984375	-575.446838378906	1429.36865234375	1239.59228515625	-610.572082519531	1493.689453125	1138.326904296875	-615.348449707031	1438.288208007812	1127.111328125	-560.9495849609373	1626.494750976562	985.5729980468751	-576.2528686523435	1663.299072265625	936.2957153320314	-518.3619384765623	1629.932739257812	899.6774902343751	-579.640197753906	1718.018676757812	868.9580078125001	-559.729797363281	1485.549438476562	1084.059936523438	-144.8122406005857	1358.159423828125	1051.641235351562	-312.296203613281	1481.292114257812	1074.698974609375	-487.2233581542966	1452.641723632812	933.655517578125	-123.062789916992	1574.820434570312	666.3240966796875	-137.0247192382811	1624.57275390625	697.8543701171875	-132.0054931640624	1658.3427734375	599.9306030273438	-161.9260406494139	1594.525146484375	588.1398315429688	-154.9874267578124	1582.49560546875	371.7903442382813	-148.3128204345702	1638.377685546875	349.5366210937501	-156.3832855224609	1633.855834960938	264.5976562500001	-171.7888488769531	1569.633178710938	273.0478820800782	-167.0391540527343	1539.497802734375	57.76424026489263	-252.7285614013672	1687.35498046875	32.56154251098636	-146.9331817626953	1751.121826171875	51.22259902954107	-225.6135101318359	1440.593017578125	962.0053710937501	-488.0739746093748	1482.50048828125	668.8180541992189	-464.4582519531248	1433.2802734375	695.8388671875001	-481.5898132324217	1402.425537109375	598.8545532226564	-447.0862426757811	1465.761596679688	592.0424804687501	-439.0480957031249	1377.250366210938	332.5725402832032	-425.3174133300781	1317.369750976562	319.6912536621095	-427.0767822265624	1301.083374023438	235.9346771240235	-407.1628112792968	1364.751220703125	232.5681457519532	-398.7465515136718	1231.671508789062	59.94168472290046	-330.15625	1402.10791015625	20.82978439331064	-403.9588928222656	1442.366455078125	26.58397293090827	-300.1147155761719	
261	1.04	1606.140014648438	1750.796508789062	-316.677825927734	1545.784790039062	1699.63330078125	-240.9418029785153	1550.252807617188	1700.30322265625	-387.9995727539059	1413.190551757812	1528.018798828125	-316.3905334472653	1341.784790039062	1329.98974609375	-250.7665557861325	1346.404296875	1332.813720703125	-392.6593627929685	1593.980834960938	1370.025634765625	-309.9996643066403	1484.930419921875	1483.707885742188	-141.2962951660153	1433.10302734375	1328.360595703125	-47.52190399169892	1490.4912109375	1240.829467773438	-34.82191085815402	1369.017578125	1248.421752929688	-37.13369369506808	1412.61474609375	1140.734497070312	-19.86112594604467	1391.646362304688	1134.856689453125	-101.1425781249997	1500.8994140625	953.031494140625	-6.056712627410677	1538.292114257812	884.3973999023438	-41.28283309936504	1467.125610351562	864.8810424804688	-6.03025436401348	1532.402465820312	796.400390625	16.64769363403338	1498.2392578125	1483.330322265625	-479.4350891113278	1488.96630859375	1318.4052734375	-579.6060180664059	1554.671508789062	1240.6298828125	-575.3105468749998	1435.720458984375	1238.849731445313	-610.805480957031	1500.223510742188	1137.722900390625	-615.5935058593748	1444.74951171875	1126.219604492188	-561.2154541015623	1633.871826171875	985.6729125976564	-575.8770751953123	1670.708374023438	936.7160034179689	-517.619934082031	1637.83544921875	899.8594360351564	-579.1584472656248	1725.925903320312	869.6680908203126	-558.865051269531	1491.102661132812	1083.147827148438	-144.5229187011716	1363.485229492188	1050.775756835938	-312.0453491210935	1486.875732421875	1073.970092773438	-487.0828552246091	1458.043334960938	932.5765991210938	-123.0126953124998	1580.172973632812	665.4200439453125	-137.3568115234374	1629.779907226562	697.0175170898438	-132.4555206298827	1663.827270507812	599.1062622070312	-162.3142700195311	1600.029052734375	587.2301025390625	-155.4805755615233	1592.091430664062	370.2532043457032	-148.7409515380859	1648.270874023438	349.1552429199219	-156.5484008789062	1645.968383789062	264.0950317382813	-171.7156524658203	1581.528198242188	270.6916809082032	-167.7845306396484	1557.296997070312	54.87876892089849	-252.9770660400391	1705.613525390625	32.96477127075199	-146.7545776367188	1768.796020507812	52.84910964965825	-225.7480163574219	1445.467041015625	961.4375000000001	-488.0437927246091	1485.1123046875	668.4122314453126	-464.7401428222655	1435.88671875	695.9149780273439	-481.8156738281248	1404.637451171875	598.9266967773439	-446.9568786621093	1467.958618164062	591.7774047851564	-439.6860046386718	1378.133178710938	332.6456604003907	-425.3674316406249	1318.27294921875	320.0945739746095	-427.1012268066406	1301.567260742188	236.4285888671876	-407.1332397460937	1365.376220703125	232.8308715820313	-398.8109741210937	1231.299560546875	60.75910186767585	-330.5928955078125	1401.993041992188	20.8342933654786	-403.8811340332031	1442.299926757812	26.58698081970222	-299.2859191894531	
